<svg width="33" height="33" viewBox="0 0 33 33" fill="none" xmlns="http://www.w3.org/2000/svg">
<path d="M30.625 14.2917H18.375V2.04167C18.375 1.50018 18.1599 0.980878 17.777 0.597991C17.3941 0.215104 16.8748 0 16.3333 0C15.7919 0 15.2725 0.215104 14.8897 0.597991C14.5068 0.980878 14.2917 1.50018 14.2917 2.04167V14.2917H2.04167C1.50018 14.2917 0.980878 14.5068 0.597991 14.8897C0.215104 15.2725 0 15.7919 0 16.3333C0 16.8748 0.215104 17.3941 0.597991 17.777C0.980878 18.1599 1.50018 18.375 2.04167 18.375H14.2917V30.625C14.2917 31.1665 14.5068 31.6858 14.8897 32.0687C15.2725 32.4516 15.7919 32.6667 16.3333 32.6667C16.8748 32.6667 17.3941 32.4516 17.777 32.0687C18.1599 31.6858 18.375 31.1665 18.375 30.625V18.375H30.625C31.1665 18.375 31.6858 18.1599 32.0687 17.777C32.4516 17.3941 32.6667 16.8748 32.6667 16.3333C32.6667 15.7919 32.4516 15.2725 32.0687 14.8897C31.6858 14.5068 31.1665 14.2917 30.625 14.2917Z" fill="#595856"/>
</svg>
